HIERARCHY
ROOT Hips
{
	OFFSET 0.00000 0.00000 0.00000
	CHANNELS 6 Xposition Yposition Zposition Yrotation Zrotation Xrotation 
	JOINT Lumbar
	{
		OFFSET 0 0 0
		CHANNELS 3 Zrotation Xrotation Yrotation
		JOINT Neck
		{
			OFFSET 0.00 0.2701 0.00
			CHANNELS 3 Zrotation Xrotation Yrotation
			End Site
			{
				OFFSET 0.00 0.1379 0.00
			}
		}
		JOINT RightShoulder
		{
			OFFSET 0.0119 0.2289 0.1181
			CHANNELS 3 Zrotation Xrotation Yrotation
			JOINT RightElbow
			{
				OFFSET 0.00 -0.1475 0.00
				CHANNELS 2 Zrotation Yrotation
				JOINT RightWrist
				{
					OFFSET 0.00 -0.1605 0.00
					CHANNELS 2 Zrotation Xrotation
					End Site
					{
						OFFSET 0.0040 -0.1068 0.0006
					}
				}
			}
		}
		JOINT LeftShoulder
		{
			OFFSET 0.0119 0.2289 -0.1181
			CHANNELS 3 Zrotation Xrotation Yrotation
			JOINT LeftElbow
			{
				OFFSET 0.00 -0.1475 0.00
				CHANNELS 2 Zrotation Yrotation
				JOINT LeftWrist
				{
					OFFSET 0.00 -0.1605 0.00
					CHANNELS 2 Zrotation Xrotation
					End Site
					{
						OFFSET 0.0040 -0.1068 -0.0006
					}
				}
			}
		}
	}
	JOINT RightHip
	{
		OFFSET 0.0316 -0.0424 0.0458
		CHANNELS 3 Zrotation Xrotation Yrotation
		JOINT RightKnee
		{
			OFFSET 0.00 -0.2438 0.00
			CHANNELS 1 Zrotation
			JOINT RightAnkle
			{
				OFFSET 0.00 -0.2449 0.00
				CHANNELS 3 Zrotation Xrotation Yrotation
				End Site
				{
					OFFSET 0.1237 -0.0542 0.0051
				}
			}
		}
	}
	JOINT LeftHip
	{
		OFFSET 0.0316 -0.0424 -0.0458
		CHANNELS 3 Zrotation Xrotation Yrotation
		JOINT LeftKnee
		{
			OFFSET 0.00 -0.2438 0.00
			CHANNELS 1 Zrotation
			JOINT LeftAnkle
			{
				OFFSET 0.00 -0.2449 0.00
				CHANNELS 3 Zrotation Xrotation Yrotation
				End Site
				{
					OFFSET 0.1237 -0.0542 -0.0051
				}
			}
		}
	}
}
MOTION
Frames: 33
Frame Time: 0.02
0.03206 -0.01561 0.06182 25.19995 -16.75738 -13.48613 42.38539 7.21561 -12.99704 -2.54588 -5.06083 -0.82959 -58.16137 -56.50384 47.53808 110.50071 80.09376 -8.37239 -2.94745 48.57825 -2.4129 -20.18397 128.15208 -81.13654 -4.04885 3.52115 30.24532 11.13204 -26.6652 -21.62955 -7.08642 -0.04182 -0.74114 46.40206 0.29587 19.02294 -57.60666 -9.74349 1.5118 1.5024
0.03254 -0.01562 0.06195 25.22069 -16.7063 -13.49649 42.39168 7.16059 -12.93394 -2.70428 -5.02408 -0.82959 -58.15482 -56.56528 47.54272 110.4507 80.15037 -8.33619 -2.96552 47.93027 -3.42226 -19.78988 128.19739 -81.28204 -2.99152 3.45414 30.14419 11.1669 -26.7752 -21.63483 -7.46883 -0.31687 -0.86485 46.3418 0.28051 18.84778 -57.66423 -9.71196 1.52371 1.50765
0.03311 -0.01562 0.06204 25.22116 -16.625 -13.49812 42.40487 7.10886 -12.8225 -2.87059 -4.97174 -0.8296 -58.15996 -56.6191 47.54782 110.39208 80.21246 -8.28485 -2.98418 47.14305 -4.72932 -19.29213 128.24765 -81.47063 -1.65914 3.36267 29.99467 11.19855 -26.89468 -21.63431 -7.25943 -0.21503 -0.78544 46.21724 0.24029 18.64855 -57.67642 -9.66431 1.54361 1.51665
0.03364 -0.01561 0.06214 25.22936 -16.55799 -13.503 42.42034 7.05634 -12.73265 -3.03848 -4.92517 -0.8296 -58.16054 -56.68363 47.55242 110.34098 80.27085 -8.24287 -3.00263 46.42121 -5.87244 -18.84994 128.29684 -81.63517 -0.46534 3.27773 29.86694 11.23084 -27.00556 -21.63555 -7.33621 -0.29534 -0.80443 46.11109 0.2098 18.4735 -57.69305 -9.62163 1.5608 1.52437
0.03417 -0.01563 0.06229 25.24571 -16.48844 -13.51092 42.41381 6.99976 -12.646 -3.18532 -4.88564 -0.8296 -58.16022 -56.71673 47.5554 110.27616 80.33354 -8.19089 -3.01937 45.68357 -7.15358 -18.36558 128.34139 -81.81889 0.7996 3.21146 29.73906 11.26696 -27.13397 -21.64029 -7.36106 -0.34632 -0.8051 46.04914 0.18662 18.24404 -57.7784 -9.58876 1.57388 1.53015
0.03471 -0.0156 0.06232 25.23888 -16.41699 -13.51057 42.45452 6.95329 -12.54059 -3.37765 -4.82667 -0.8296 -58.16756 -56.81255 47.5569 110.23689 80.38893 -8.15315 -3.04047 44.94859 -8.20866 -17.94679 128.39652 -81.97283 1.97569 3.10125 29.6005 11.29418 -27.22818 -21.63657 -7.3447 -0.362 -0.79253 45.88078 0.141 18.11999 -57.70928 -9.53168 1.59787 1.54113
0.03528 -0.01542 0.06206 25.1809 -16.3487 -13.48795 42.62231 6.92837 -12.39546 -3.6927 -4.72401 -0.8296 -58.14287 -57.10063 47.63093 110.27504 80.42173 -8.19238 -3.07271 44.25327 -8.59635 -17.73653 128.4813 -82.03318 2.84641 2.87039 29.44287 11.29788 -27.22778 -21.60927 -7.36622 -0.37624 -0.79555 45.4301 0.05288 18.31353 -57.2304 -9.41193 1.64537 1.56295
0.03586 -0.01519 0.06169 25.0985 -16.27929 -13.45764 42.83735 6.9147 -12.23314 -4.05328 -4.60113 -0.82961 -58.13229 -57.4503 47.69184 110.33796 80.44697 -8.23991 -3.10984 43.56681 -8.73616 -17.5966 128.57614 -82.06214 3.61421 2.59769 29.2765 11.29266 -27.1925 -21.57394 -7.36039 -0.36325 -0.78991 44.87589 -0.05898 18.6104 -56.59729 -9.26848 1.70433 1.59029
0.03642 -0.01499 0.06136 25.02212 -16.20993 -13.43183 43.03197 6.89952 -12.07792 -4.3936 -4.48319 -0.82961 -58.14937 -57.7594 47.70816 110.38653 80.47687 -8.26256 -3.14518 42.87829 -8.97123 -17.42377 128.66541 -82.10602 4.4235 2.34693 29.11525 11.29123 -27.17169 -21.5434 -7.36254 -0.36008 -0.78669 44.37146 -0.1692 18.84622 -56.03014 -9.13553 1.7612 1.61685
0.03704 -0.01477 0.06108 24.96711 -16.14194 -13.40133 43.22328 6.86894 -11.92284 -4.73257 -4.38227 -0.82961 -58.02983 -58.11678 47.93236 110.44873 80.50308 -8.37628 -3.1779 42.17612 -9.3009 -17.25025 128.75946 -82.14879 5.26818 2.08075 28.94765 11.29066 -27.15635 -21.50797 -7.3722 -0.36184 -0.78647 43.85155 -0.24339 19.1398 -55.47585 -9.00256 1.80561 1.63646
0.03753 -0.01458 0.06067 24.86128 -16.0706 -13.37909 43.43151 6.87342 -11.7655 -5.08484 -4.24178 -0.82961 -58.1896 -58.394 47.72726 110.48747 80.53349 -8.29934 -3.21822 41.50678 -9.35754 -17.09736 128.84541 -82.18567 6.00698 1.83985 28.79158 11.2864 -27.12205 -21.48075 -7.35608 -0.34297 -0.77609 43.34223 -0.39579 19.33903 -54.8625 -8.86499 1.87806 1.67154
0.03767 -0.0145 0.05991 24.62801 -15.99598 -13.3795 43.68434 6.96885 -11.59367 -5.46443 -3.99312 -0.82962 -59.18759 -58.38824 46.2832 110.46462 80.59144 -7.72267 -3.26961 40.92163 -8.83241 -16.97453 128.90958 -82.21555 6.51502 1.65488 28.6722 11.27256 -27.03621 -21.47917 -7.38094 -0.3551 -0.78144 42.87124 -0.77675 19.24281 -54.09326 -8.71421 2.02953 1.75015
0.03767 -0.01445 0.05903 24.34358 -15.91723 -13.38881 43.9508 7.09959 -11.42279 -5.85547 -3.70629 -0.82962 -60.45191 -58.3096 44.41921 110.41578 80.65143 -6.94979 -3.32985 40.3697 -8.01955 -16.87168 128.96395 -82.24016 6.91426 1.50097 28.56463 11.25555 -26.9335 -21.48592 -7.36904 -0.3379 -0.77206 42.41873 -1.23206 19.04983 -53.27692 -8.56109 2.20794 1.84369
0.03772 -0.01439 0.05822 24.07772 -15.83671 -13.3956 44.20473 7.21639 -11.25985 -6.24003 -3.43937 -0.82962 -61.54936 -58.29343 42.78343 110.37256 80.70092 -6.24633 -3.3921 39.80747 -7.26269 -16.76749 129.02168 -82.26582 7.33486 1.34938 28.44988 11.24116 -26.84406 -21.48826 -7.30139 -0.27779 -0.7406 41.96761 -1.64113 18.90779 -52.50104 -8.41301 2.37111 1.92894
0.03785 -0.01431 0.05736 23.8294 -15.77117 -13.39614 44.48687 7.32532 -11.06074 -6.63151 -3.16029 -0.82962 -62.8451 -58.15069 40.98521 110.35559 80.78962 -5.62134 -3.43014 39.22955 -6.80955 -16.63594 129.08732 -82.29573 7.86055 1.12885 28.34171 11.22185 -26.73137 -21.49309 -7.51777 -0.43821 -0.82206 41.46784 -2.10359 18.74057 -51.63486 -8.24648 2.54741 2.02077
0.03778 -0.01428 0.05658 23.53441 -15.67391 -13.41134 44.7131 7.45811 -10.93764 -7.01081 -2.89849 -0.82963 -63.78552 -58.25953 39.43102 110.27841 80.79842 -4.79271 -3.51928 38.68665 -5.663 -16.56155 129.13038 -82.31637 8.15543 1.0574 28.22367 11.2117 -26.6615 -21.49463 -7.16003 -0.15247 -0.67514 41.07976 -2.47223 18.60067 -50.95317 -8.11917 2.70253 2.10236
0.03728 -0.01435 0.05608 23.10831 -15.48587 -13.46946 44.77881 7.65486 -11.02182 -7.35207 -2.68764 -0.82963 -63.72596 -59.02792 38.60769 110.03303 80.5763 -3.39491 -3.75928 38.27869 -2.63478 -16.67119 129.14523 -82.3119 7.73191 1.41111 28.06759 11.23147 -26.73158 -21.48683 -5.00094 1.53015 0.18743 40.95761 -2.56254 18.5672 -50.74509 -8.09181 2.7932 2.15198
0.0366 -0.01446 0.05568 22.63973 -15.26666 -13.54106 44.78764 7.8732 -11.18245 -7.68057 -2.49678 -0.82963 -63.29152 -60.06093 38.0523 109.72947 80.2758 -1.80986 -4.04823 37.89582 1.07309 -16.83134 129.13217 -82.30041 7.10077 1.90993 27.90257 11.25984 -26.84198 -21.47519 -2.30429 3.63087 1.26397 40.95534 -2.55558 18.56334 -50.7335 -8.10548 2.86145 2.19072
0.03597 -0.01455 0.05522 22.20062 -15.06473 -13.60363 44.82467 8.07706 -11.31043 -8.01599 -2.30082 -0.82964 -62.99746 -61.00808 37.40527 109.45773 80.01737 -0.34553 -4.30687 37.47141 4.44419 -16.94792 129.11046 -82.2905 6.63532 2.32884 27.74703 11.28188 -26.92286 -21.46411 -0.00565 5.42407 2.18275 40.92302 -2.59417 18.53979 -50.66433 -8.10676 2.93951 2.23446
0.03545 -0.01466 0.05479 21.71747 -14.85028 -13.67928 44.85403 8.30145 -11.43181 -8.34789 -2.08655 -0.82964 -62.83674 -61.81029 36.61948 109.16198 79.73086 1.27898 -4.59963 37.17669 7.94355 -17.15308 129.17664 -82.27967 5.86345 2.80825 27.5695 11.31425 -27.0514 -21.45812 2.92986 7.70447 3.35235 40.78613 -2.63117 18.53655 -50.46126 -8.08285 3.02013 2.2786
0.03467 -0.01474 0.05435 21.31577 -14.65361 -13.73014 44.88346 8.48827 -11.58228 -8.68296 -1.91585 -0.82964 -62.30903 -62.97469 36.1879 108.90325 79.48534 2.60807 -4.83314 36.61575 11.33305 -17.18445 129.05558 -82.27858 5.68368 3.1951 27.4349 11.32689 -27.08922 -21.44074 4.68283 9.08149 4.05666 40.89777 -2.64556 18.50268 -50.58219 -8.11952 3.0897 2.31902
0.03323 -0.0147 0.05384 21.15728 -14.52189 -13.71466 44.94607 8.56121 -11.81897 -9.0381 -1.85932 -0.82964 -60.82825 -65.10558 36.70677 108.75747 79.36279 3.10553 -4.88819 35.32491 14.25336 -16.72995 128.40483 -82.22669 7.17408 3.2957 27.42624 11.28557 -26.87781 -21.39071 2.89299 7.75313 3.36744 41.64477 -2.63721 18.34702 -51.56382 -8.3282 3.13403 2.35238
0.03153 -0.01461 0.05332 21.08117 -14.40773 -13.67274 45.00715 8.59627 -12.07795 -9.39529 -1.84646 -0.82965 -58.9943 -67.58683 37.56927 108.65217 79.28626 3.29216 -4.88237 33.76152 17.03746 -16.09617 127.5707 -82.20034 9.2696 3.29701 27.46009 11.22359 -26.57195 -21.32966 -0.07905 5.52091 2.21284 42.64119 -2.60643 18.16485 -52.85861 -8.59396 3.16767 2.38209
0.02994 -0.01456 0.05282 20.96218 -14.28006 -13.63929 45.05623 8.65172 -12.31026 -9.74609 -1.8145 -0.82965 -57.34295 -69.88709 38.24998 108.5302 79.19436 3.60106 -4.90634 32.31718 19.88295 -15.5419 126.83282 -82.21362 11.10071 3.34055 27.47096 11.16939 -26.30184 -21.27504 -2.4136 3.77404 1.30848 43.53813 -2.57472 18.01587 -54.0058 -8.82356 3.20647 2.41318
0.0284 -0.01448 0.05227 20.86395 -14.1743 -13.62116 45.1566 8.69469 -12.61403 -10.11943 -1.7797 -0.82965 -55.59078 -72.28665 39.04233 108.39708 79.07491 3.99878 -4.92327 30.9001 22.75712 -15.00323 126.03774 -82.00776 12.88565 3.40166 27.49684 11.12237 -26.06248 -21.21444 -5.15001 1.72852 0.24887 44.38279 -2.58533 17.78161 -55.19751 -9.09659 3.24415 2.4455
0.02669 -0.01443 0.05182 20.74349 -14.02792 -13.56482 45.15093 8.75417 -12.77457 -10.44657 -1.76141 -0.82966 -53.96285 -74.5614 39.68737 108.29982 79.02654 4.13275 -4.9395 29.35359 25.52705 -14.38191 125.32074 -82.26773 14.90584 3.40033 27.50185 11.05526 -25.73728 -21.16354 -7.34031 0.08291 -0.60178 45.3914 -2.50537 17.71452 -56.34899 -9.29363 3.28077 2.47397
0.0246 -0.01451 0.0516 20.53471 -13.76129 -13.40798 44.84959 8.86989 -12.52254 -10.64503 -1.77386 -0.82972 -52.82091 -76.38602 39.78358 108.27377 79.15086 3.63184 -4.97109 27.57925 28.06512 -13.63306 124.84691 -83.77724 17.48946 3.25352 27.43719 10.93889 -25.18825 -21.14361 -7.70588 -0.21979 -0.75204 46.81291 -2.1668 18.14541 -57.47738 -9.25408 3.32683 2.49761
0.02235 -0.01463 0.05147 20.30254 -13.45405 -13.21389 44.44257 9.00301 -12.12758 -10.79721 -1.8021 -0.8298 -51.80589 -78.07573 39.73129 108.28681 79.34928 2.87065 -5.00365 25.67092 30.49425 -12.79494 124.46176 -85.75811 20.27677 3.0462 27.35032 10.80279 -24.55789 -21.13359 -7.48677 -0.09287 -0.67811 48.3857 -1.74085 18.7379 -58.52291 -9.13812 3.37049 2.51663
0.02017 -0.01472 0.0513 20.0853 -13.16806 -13.03762 44.0862 9.12729 -11.80502 -10.97087 -1.82577 -0.82986 -50.69964 -79.83828 39.78101 108.29302 79.52037 2.21803 -5.0336 23.78418 32.95626 -11.96199 124.047 -87.54612 22.9334 2.86394 27.27483 10.67488 -23.97086 -21.11802 -7.5588 -0.17791 -0.71505 49.87541 -1.36469 19.23898 -59.49722 -9.06555 3.40889 2.53457
0.01797 -0.01483 0.05114 19.85134 -12.87084 -12.85626 43.71823 9.25475 -11.45102 -11.14219 -1.83998 -0.82993 -49.72915 -81.56278 39.68851 108.25128 79.66018 1.60133 -5.0695 22.0591 35.48847 -11.27814 123.57908 -89.25427 25.77878 2.68804 27.19573 10.54938 -23.35304 -21.1063 -7.5731 -0.22913 -0.73303 51.43663 -0.9455 19.82253 -60.94157 -8.95907 3.47357 2.56575
0.01579 -0.01491 0.05098 19.64734 -12.58718 -12.67752 43.34989 9.3795 -11.12931 -11.30801 -1.87707 -0.83 -48.50232 -83.33212 39.86328 108.32215 79.88974 0.84498 -5.09543 19.96249 37.84487 -10.25752 123.24735 -91.22856 28.26294 2.48652 27.11792 10.41464 -22.78204 -21.08928 -7.5425 -0.23017 -0.7276 52.87879 -0.59503 20.26359 -61.38396 -8.90349 3.48326 2.56838
0.01372 -0.01487 0.05083 19.51728 -12.35029 -12.51066 43.00174 9.49829 -10.92223 -11.46484 -1.97327 -0.83001 -46.6197 -85.23834 40.71274 108.66071 80.27865 -0.17371 -5.08054 16.92997 39.78599 -8.3919 123.25422 -93.92738 29.77314 2.22285 27.05196 10.25741 -22.35398 -21.05344 -7.62614 -0.25684 -0.74384 53.97645 -0.45913 20.35338 -59.07546 -9.01392 3.34042 2.49288
0.01169 -0.01479 0.05067 19.42089 -12.12837 -12.34857 42.65775 9.61257 -10.7541 -11.61883 -2.09173 -0.83002 -44.46773 -87.19701 41.84937 109.11754 80.76436 -1.3346 -5.05752 13.51914 41.54483 -6.17957 123.39917 -96.86052 30.89796 1.93693 26.98709 10.09186 -21.97732 -21.01226 -7.66559 -0.23531 -0.73766 54.9431 -0.39428 20.27967 -55.7647 -9.17659 3.14269 2.38896
